<?xml version="1.0" encoding="UTF-8" standalone="no"?>
<svg
   version="1.1"
   viewBox="0 0 192 192"
   id="svg1488"
   width="192"
   height="192"
   xmlns="http://www.w3.org/2000/svg"
   xmlns:svg="http://www.w3.org/2000/svg">
  <defs
     id="defs1477">
    <style
       id="style1475">.cls-1,.cls-2{fill:#b53c2c;stroke-width:0}.cls-2{fill:#848582}</style>
  </defs>
  <rect
     style="display:inline;fill:#5064ad;fill-opacity:1;stroke-width:0.731246"
     id="rect5542"
     width="192"
     height="192"
     x="0"
     y="0"
     ry="33.647999" />
  <rect
     style="display:none;fill:#848582;fill-opacity:1;stroke-width:0.731246"
     id="rect5542-7"
     width="192"
     height="192"
     x="0"
     y="0"
     ry="33.648003" />
  <path
     id="path79-3"
     d="M 160.76673,127.89244 H 30.603616 v 10.0067 c 0.05183,12.10741 7.958612,19.53223 20.930145,19.53223 28.337553,-0.0484 56.657829,-0.12816 85.047049,-0.17643 2.5667,-0.0484 5.27125,-0.12817 7.80359,-0.76971 15.62439,-3.86476 18.51844,-15.89201 16.39959,-28.59279 z"
     class="cls-2"
     style="display:inline;fill:#ffffff;fill-opacity:1;stroke-width:0" />
  <path
     id="path81-5"
     d="m 88.530433,15.325737 c 0,8.483223 0,16.966447 -0.137633,25.44967 -0.05183,1.619673 -0.327228,3.399704 -0.878566,4.90712 -9.353961,24.631814 -18.794044,49.183452 -28.010183,73.735083 -0.826898,2.16489 -1.82601,2.87051 -4.151603,2.82239 -8.148132,-0.12816 -16.26176,0 -24.392641,0.0483 -2.70458,0 -3.772615,0.99423 -3.772615,3.22328 0,2.22906 1.205856,3.27141 4.099901,3.22331 7.803595,0 15.52104,-0.17639 23.290157,-0.22459 35.193684,-0.12816 70.35285,-0.30462 105.5982,-0.40089 3.18689,0 4.72008,-1.12256 4.63392,-3.27142 -0.0862,-2.16491 -1.3953,-3.09503 -4.53056,-3.09503 -6.71829,0 -13.38495,0 -20.05159,0.12832 -1.92934,0.0481 -2.84236,-0.52918 -3.56586,-2.22905 -11.18,-24.551642 -22.35998,-49.055165 -33.55717,-73.622839 -0.37898,-0.769744 -0.56848,-1.571562 -0.56848,-2.389413 V 15.389817 Z M 124.63709,121.69474 H 71.30398 C 79.26259,100.76736 87.255705,79.775783 95.231501,58.816287 h 0.689083 c 9.543446,20.815168 19.035266,41.646353 28.699256,62.878453 h 0.033 z"
     class="cls-2"
     style="display:inline;fill:#ffffff;fill-opacity:1;stroke-width:0" />
  <g
     id="g15412"
     style="display:none">
    <path
       id="path79-3-2"
       d="M 160.76672,128.1385 H 30.603622 v 10.0067 c 0.05183,12.10741 7.958612,19.53223 20.930144,19.53223 28.337552,-0.0484 56.657814,-0.12817 85.047034,-0.17643 2.5667,-0.0484 5.27126,-0.12818 7.80359,-0.76972 15.6244,-3.86476 18.51844,-15.89201 16.39959,-28.59278 z"
       class="cls-2"
       style="display:inline;fill:#000000;fill-opacity:1;stroke-width:0" />
    <path
       id="path81-5-7"
       d="m 88.530435,15.486111 c 0,8.483223 0,16.966446 -0.137632,25.44967 -0.05183,1.619672 -0.327228,3.399703 -0.878567,4.907119 -9.35396,24.631813 -18.794043,49.183457 -28.010181,73.73508 -0.826899,2.1649 -1.826011,2.87052 -4.151603,2.82239 -8.148131,-0.12816 -16.26176,0 -24.39264,0.0483 -2.704581,0 -3.772615,0.99424 -3.772615,3.22328 0,2.22906 1.205856,3.27141 4.0999,3.22332 7.803595,0 15.52104,-0.1764 23.290157,-0.2246 35.193682,-0.12816 70.352846,-0.30461 105.598196,-0.40089 3.18689,0 4.72007,-1.12256 4.63392,-3.27142 -0.0862,-2.16491 -1.3953,-3.09503 -4.53056,-3.09503 -6.71829,0 -13.38495,0 -20.05159,0.12832 -1.92934,0.0481 -2.84236,-0.52918 -3.56586,-2.22905 -11.18,-24.551613 -22.35998,-49.055133 -33.55716,-73.622806 -0.37899,-0.769744 -0.56848,-1.571562 -0.56848,-2.389413 V 15.550191 Z M 124.63709,121.85511 H 71.303983 C 79.262592,100.92774 87.255708,79.936155 95.231498,58.976659 h 0.68909 c 9.543442,20.815168 19.035262,41.646361 28.699252,62.878451 h 0.033 z"
       class="cls-2"
       style="display:inline;fill:#000000;fill-opacity:1;stroke-width:0" />
  </g>
  <g
     id="g15290"
     style="display:none">
    <path
       style="fill:#e99b24;fill-opacity:1;stroke:#000000;stroke-width:0.588826;stroke-dasharray:none;stroke-opacity:1"
       id="path13259"
       d="M 189.54182,185.85142 82.342085,186.87506 135.05545,93.525546 Z"
       transform="matrix(0.88512572,0.01217221,-0.01375067,0.99990546,26.253584,3.4145997)" />
    <text
       xml:space="preserve"
       style="font-weight:500;font-size:64px;font-family:Raleway;-inkscape-font-specification:'Raleway Medium';display:none;fill:#090601;fill-opacity:1;stroke:none;stroke-width:0.554;stroke-dasharray:none;stroke-opacity:1"
       x="135.63112"
       y="179.57352"
       id="text13989"><tspan
         id="tspan13987"
         x="0"
         y="0"
         style="font-size:64px">!</tspan></text>
  </g>
  <g
     id="g13191"
     style="display:none">
    <rect
       style="fill:#ffffff;fill-opacity:1;stroke-width:0.581105"
       id="rect13156-6"
       width="339.65765"
       height="15.484091"
       x="-129.83038"
       y="122.8716"
       ry="0"
       transform="rotate(-27.63419)" />
    <g
       id="g13186">
      <rect
         style="fill:#b53c2c;fill-opacity:1;stroke-width:0.581105"
         id="rect13156"
         width="339.65765"
         height="15.484091"
         x="-128.99956"
         y="119.88033"
         ry="0"
         transform="rotate(-27.63419)" />
    </g>
  </g>
</svg>
